<?xml version="1.0" standalone="no"?>
<!DOCTYPE svg PUBLIC "-//W3C//DTD SVG 20010904//EN"
 "http://www.w3.org/TR/2001/REC-SVG-20010904/DTD/svg10.dtd">
<svg version="1.0" xmlns="http://www.w3.org/2000/svg"
 width="700.000000pt" height="700.000000pt" viewBox="0 0 700.000000 700.000000"
 preserveAspectRatio="xMidYMid meet">
<metadata>
Created by potrace 1.11, written by Peter Selinger 2001-2013
</metadata>
<g transform="translate(0.000000,700.000000) scale(0.100000,-0.100000)"
fill="#000000" stroke="none">
<path d="M2700 5208 c0 -577 -3 -1048 -7 -1049 -5 0 -282 -2 -618 -4 -335 -1
-626 -6 -645 -9 -19 -4 -75 -14 -123 -22 -174 -29 -416 -125 -552 -217 -127
-87 -250 -202 -338 -317 -23 -30 -45 -57 -49 -58 -5 -2 -8 -8 -8 -12 0 -5 -13
-29 -29 -52 -111 -165 -216 -462 -247 -697 -3 -20 -7 -54 -10 -76 -9 -65 -11
-324 -3 -410 15 -166 44 -308 94 -460 38 -118 122 -300 161 -352 13 -17 24
-34 24 -38 0 -11 123 -169 175 -223 63 -67 202 -182 276 -227 57 -35 214 -111
280 -135 89 -33 255 -75 344 -87 74 -9 561 -10 666 -1 207 19 407 87 553 187
24 17 47 31 50 31 3 0 6 -36 6 -80 0 -57 4 -80 13 -81 15 -1 930 -1 937 0 3 1
5 533 4 1184 0 650 2 1188 4 1195 3 9 341 12 1643 12 1554 0 1639 1 1640 18 1
21 1 843 0 893 l-1 36 -1635 0 c-899 0 -1639 3 -1643 7 -4 4 -8 470 -8 1034
-1 565 -2 1034 -3 1042 -1 13 -61 15 -476 15 l-475 0 0 -1047z m-752 -1998
c129 -5 286 -39 381 -83 292 -133 422 -412 388 -833 -21 -255 -131 -463 -329
-619 -55 -44 -204 -109 -298 -131 -88 -20 -287 -26 -384 -11 -150 24 -332 121
-436 234 -97 104 -175 252 -216 408 -23 87 -27 121 -28 260 -1 185 3 225 37
326 37 109 72 166 151 244 118 117 275 182 486 201 36 4 66 7 67 8 1 1 64 0
181 -4z"/>
<path d="M4979 5826 c-2 -2 -29 -7 -59 -10 -82 -9 -106 -14 -207 -42 -282 -75
-504 -256 -614 -499 -68 -150 -96 -269 -115 -475 -2 -30 -6 -284 -4 -331 0
-13 52 -15 478 -14 262 1 480 3 483 4 3 0 6 93 7 205 1 248 14 309 82 374 48
46 80 57 170 57 120 0 179 -36 222 -135 18 -40 21 -67 27 -221 1 -14 39 -16
376 -16 l375 0 1 26 c6 258 -20 419 -96 576 -128 267 -378 434 -730 490 -46 7
-390 17 -396 11z"/>
<path d="M3980 2940 c0 -16 0 -464 0 -995 0 -531 0 -993 0 -1028 l0 -63 475 0
475 0 0 1058 0 1058 -475 0 -475 0 0 -30z"/>
</g>
</svg>
