<?xml version="1.0" standalone="no"?>
<!DOCTYPE svg PUBLIC "-//W3C//DTD SVG 20010904//EN"
 "http://www.w3.org/TR/2001/REC-SVG-20010904/DTD/svg10.dtd">
<svg version="1.0" xmlns="http://www.w3.org/2000/svg"
 width="828.000000pt" height="828.000000pt" viewBox="0 0 828.000000 828.000000"
 preserveAspectRatio="xMidYMid meet">
<metadata>
Created by potrace 1.11, written by Peter Selinger 2001-2013
</metadata>
<g transform="translate(0.000000,828.000000) scale(0.100000,-0.100000)"
fill="#000000" stroke="none">
<path d="M2506 7334 l-936 -936 0 -3199 0 -3199 937 2 937 3 0 1552 c1 853 4
1554 8 1558 4 4 73 7 155 6 174 -2 130 -1 408 -1 124 0 232 0 240 0 8 0 116 0
240 0 124 0 231 0 238 0 14 0 773 0 800 0 9 0 118 0 242 0 124 0 232 0 240 0
8 0 116 0 240 0 124 0 232 0 240 0 8 0 62 0 120 1 l105 2 0 936 0 936 -1637 0
-1638 0 0 133 c0 72 -4 132 -8 132 -5 0 -5 5 -1 12 10 16 11 628 1 628 -4 0
-4 8 0 18 5 9 8 121 7 248 l-1 231 1639 -1 1638 -1 0 938 0 937 -1639 0 -1639
0 -936 -936z"/>
</g>
</svg>
