<?xml version="1.0" standalone="no"?>
<!DOCTYPE svg PUBLIC "-//W3C//DTD SVG 20010904//EN"
 "http://www.w3.org/TR/2001/REC-SVG-20010904/DTD/svg10.dtd">
<svg version="1.0" xmlns="http://www.w3.org/2000/svg"
 width="800.000000pt" height="800.000000pt" viewBox="0 0 800.000000 800.000000"
 preserveAspectRatio="xMidYMid meet">
<metadata>
Created by potrace 1.11, written by Peter Selinger 2001-2013
</metadata>
<g transform="translate(0.000000,800.000000) scale(0.100000,-0.100000)"
fill="#000000" stroke="none">
<path d="M3069 7188 c-1 -7 -2 -555 -3 -1218 l-1 -1205 -660 -1 c-363 -1 -694
-4 -735 -8 -100 -9 -150 -15 -180 -21 -14 -2 -38 -7 -55 -10 -16 -2 -45 -9
-62 -14 -18 -5 -33 -8 -33 -6 0 2 -16 -3 -35 -11 -19 -8 -37 -14 -40 -14 -30
2 -229 -76 -325 -128 -77 -41 -198 -120 -222 -144 -10 -10 -22 -18 -27 -18 -9
0 -190 -176 -231 -225 -14 -17 -39 -48 -55 -70 -17 -22 -32 -42 -35 -45 -3 -3
-28 -41 -56 -85 -66 -105 -146 -270 -179 -370 -15 -44 -29 -87 -32 -95 -10
-25 -12 -32 -32 -114 -11 -44 -23 -93 -26 -110 -2 -17 -7 -44 -11 -61 -3 -16
-7 -43 -9 -60 -2 -16 -7 -59 -12 -95 -10 -81 -10 -456 0 -530 38 -285 95 -490
197 -707 114 -240 257 -429 465 -614 68 -60 226 -162 330 -213 55 -27 108 -53
119 -58 10 -5 26 -11 35 -13 9 -2 30 -9 46 -16 36 -15 28 -12 145 -44 97 -26
104 -28 200 -40 30 -4 78 -11 105 -15 52 -9 634 -6 672 3 11 3 56 8 99 12 43
3 80 8 84 10 4 2 22 7 41 10 99 17 228 62 324 114 89 48 119 65 125 72 9 10
54 39 61 39 3 0 6 -37 7 -82 0 -46 0 -88 1 -95 1 -9 137 -11 554 -10 l552 2 1
1383 c1 760 4 1385 7 1388 3 4 863 6 1911 6 l1906 -1 -2 552 -3 551 -1907 0
-1908 0 -1 26 c0 14 -1 562 -1 1218 l-1 1192 -553 0 c-436 0 -554 -3 -555 -12z
m-794 -3532 c149 -19 196 -29 294 -65 356 -130 526 -405 525 -851 -1 -164 -22
-297 -70 -432 -31 -88 -61 -146 -129 -244 -20 -30 -112 -123 -156 -159 -72
-59 -213 -132 -310 -160 -376 -107 -750 -29 -989 207 -65 63 -130 140 -130
151 0 5 -11 23 -24 40 -58 78 -138 293 -152 407 -1 8 -5 38 -10 65 -15 89 -9
322 11 415 9 46 21 94 25 105 4 11 7 22 7 25 0 3 6 16 13 30 8 14 15 30 16 37
3 19 90 146 131 189 68 74 247 178 346 200 9 2 27 7 40 10 59 15 118 25 177
30 36 3 66 7 67 8 5 5 271 -2 318 -8z"/>
<path d="M5768 6704 c-2 -1 -41 -5 -88 -9 -47 -4 -87 -8 -90 -10 -3 -2 -23 -6
-45 -9 -22 -4 -56 -11 -75 -16 -19 -5 -44 -11 -55 -13 -11 -2 -27 -7 -35 -10
-8 -3 -33 -11 -55 -18 -73 -22 -219 -96 -290 -146 -142 -102 -250 -228 -334
-393 -42 -82 -100 -262 -115 -360 -3 -19 -8 -45 -10 -57 -11 -54 -19 -182 -21
-360 l-2 -193 31 -1 c17 0 269 0 560 -1 411 0 530 3 536 12 4 7 5 24 1 39 -4
14 -6 37 -4 51 3 21 4 103 2 145 0 6 0 39 0 75 0 36 0 72 0 80 -3 65 18 154
48 210 47 87 109 128 207 137 137 12 242 -39 289 -139 28 -60 36 -108 38 -220
l2 -77 438 -1 438 0 -4 182 c-2 101 -6 194 -10 208 -3 14 -10 49 -16 79 -22
112 -105 305 -156 361 -13 14 -23 28 -23 31 0 25 -141 158 -231 218 -117 79
-312 157 -434 174 -22 3 -47 8 -55 11 -38 13 -431 31 -442 20z"/>
<path d="M4559 3385 c-5 0 -4 -2455 1 -2456 3 -1 251 -3 553 -4 l547 -1 1 35
c0 47 0 2357 0 2396 l-1 30 -550 0 c-303 0 -551 0 -551 0z"/>
</g>
</svg>
