<svg id="design-lab-logo" xmlns="http://www.w3.org/2000/svg" viewBox="0 0 288.03 85.76">
  <path class="st0" d="M5.95,62.3H0V60.15H14.47V62.3h-6V79.7H5.95Zm10.41-3.19h2.55V67.9H19a4.8,4.8,0,0,1,1.83-1.83,5.23,5.23,0,0,1,2.61-.7c1.89,0,4.9,1.16,4.9,6V79.7H25.75V71.64c0-2.26-.84-4.15-3.25-4.15A3.71,3.71,0,0,0,19.08,70a3.26,3.26,0,0,0-.17,1.22V79.7H16.36Zm17.52,14C33.93,76.6,36.11,78,38.69,78a9.14,9.14,0,0,0,3.89-.72L43,79.12a11.44,11.44,0,0,1-4.7.9c-4.32,0-6.9-2.87-6.9-7.11s2.49-7.54,6.58-7.54c4.61,0,5.8,4,5.8,6.58a6.26,6.26,0,0,1-.09,1.19Zm7.48-1.83c0-1.6-.67-4.12-3.54-4.12-2.61,0-3.71,2.35-3.92,4.12ZM53.21,60.44A32.42,32.42,0,0,1,58.58,60c3.63,0,6.21.87,7.92,2.44a8.92,8.92,0,0,1,2.78,7,10.46,10.46,0,0,1-2.81,7.6c-1.86,1.83-4.87,2.81-8.67,2.81a40.48,40.48,0,0,1-4.58-.23Zm2.52,17.29a21,21,0,0,0,2.55.12c5.42,0,8.33-3,8.33-8.3C66.65,64.94,64,62,58.7,62a14.38,14.38,0,0,0-3,.26ZM74,73.15C74,76.6,76.21,78,78.79,78a9.14,9.14,0,0,0,3.89-.72l.46,1.83a11.44,11.44,0,0,1-4.7.9c-4.32,0-6.9-2.87-6.9-7.11s2.49-7.54,6.58-7.54c4.61,0,5.8,4,5.8,6.58a6.22,6.22,0,0,1-.09,1.19Zm7.48-1.83c0-1.6-.67-4.12-3.54-4.12-2.61,0-3.71,2.35-3.92,4.12Zm5.28,5.8a7.2,7.2,0,0,0,3.39,1c1.83,0,2.7-.9,2.7-2.09s-.73-1.86-2.58-2.55c-2.55-.93-3.74-2.29-3.74-4,0-2.26,1.86-4.12,4.84-4.12a6.51,6.51,0,0,1,3.42.87l-.61,1.86a5.43,5.43,0,0,0-2.87-.84c-1.51,0-2.32.87-2.32,1.92s.81,1.68,2.64,2.41c2.41.9,3.68,2.12,3.68,4.21,0,2.5-1.94,4.24-5.22,4.24a8,8,0,0,1-3.95-1Zm14.67-15.4a1.52,1.52,0,0,1-1.62,1.57,1.5,1.5,0,0,1-1.54-1.57,1.56,1.56,0,0,1,1.6-1.6A1.53,1.53,0,0,1,101.41,61.72Zm-2.84,18v-14h2.55v14Zm18.79-2.06c0,3.25-.67,5.19-2,6.44a7.72,7.72,0,0,1-5.13,1.68,9.06,9.06,0,0,1-4.67-1.16l.64-2a7.64,7.64,0,0,0,4.12,1.13c2.61,0,4.52-1.36,4.52-4.93V77.29h-.06a5,5,0,0,1-4.47,2.35c-3.48,0-6-3-6-6.85,0-4.76,3.1-7.43,6.35-7.43a4.69,4.69,0,0,1,4.38,2.41h.06l.09-2.12h2.26c-.09,1-.12,2.15-.12,3.83Zm-2.55-6.44a3.34,3.34,0,0,0-.15-1.13,3.64,3.64,0,0,0-3.57-2.73c-2.44,0-4.18,2.06-4.18,5.31,0,2.76,1.42,5,4.15,5a3.68,3.68,0,0,0,3.54-2.61,4.44,4.44,0,0,0,.2-1.36Zm6.58-1.74c0-1.48,0-2.64-.12-3.8h2.26l.15,2.32h.06a5.2,5.2,0,0,1,4.64-2.61c1.94,0,5,1.16,5,6V79.7h-2.55V71.61c0-2.26-.84-4.15-3.25-4.15a3.74,3.74,0,0,0-3.6,3.8V79.7h-2.55Zm22.3-9.31h2.55V77.58h8.35V79.7H143.69Zm23.49,16.19a23.63,23.63,0,0,0,.2,3.37H165.1l-.2-1.77h-.09A5.23,5.23,0,0,1,160.51,80a4,4,0,0,1-4.29-4c0-3.39,3-5.25,8.44-5.22v-.29a2.87,2.87,0,0,0-3.19-3.22,6.76,6.76,0,0,0-3.68,1l-.58-1.71a9.09,9.09,0,0,1,4.64-1.22c4.29,0,5.34,2.93,5.34,5.71Zm-2.46-3.8c-2.79-.06-5.95.44-5.95,3.16a2.24,2.24,0,0,0,2.38,2.44,3.54,3.54,0,0,0,3.45-2.35,2.89,2.89,0,0,0,.12-.81Zm6.58-13.43h2.52v8.82h.06a5.21,5.21,0,0,1,4.79-2.55c3.51,0,5.95,2.9,5.95,7.14,0,5-3.19,7.51-6.32,7.51a5.1,5.1,0,0,1-4.73-2.61h-.06l-.15,2.29h-2.17c.06-1,.12-2.38.12-3.63Zm2.52,15a3.26,3.26,0,0,0,.12.93,3.92,3.92,0,0,0,3.83,3c2.7,0,4.26-2.18,4.26-5.4,0-2.81-1.45-5.22-4.21-5.22A4.1,4.1,0,0,0,174,70.51a4,4,0,0,0-.15,1.07Z"></path>
  <path class="st1" d="M238.78,52.94H0v-1.4H237.45A9,9,0,0,0,238.78,52.94Zm48.8-1.4H265.75a12.6,12.6,0,0,1-1.65,1.4h23.48Z"></path>
  <path class="st0" d="M34.46,27.66c0,8.51-1.24,15-14.17,15s-14.85-6.21-14.85-15V7c0-4.66-2-5.1-5.41-5.1V.62H16.37V1.86C13,1.86,11,2.3,11,7v20.7c0,6.34,1.49,12.55,9.57,12.55,9,0,10.38-5.16,10.38-12.55V7c0-4.66-2-5.1-5.4-5.1V.62H39.87V1.86c-3.42,0-5.41.43-5.41,5.1ZM68.83,41a31.46,31.46,0,0,1-11.12,1.68c-12.43,0-18.4-9.45-18.4-22.68C39.31,8.45,43,0,56.34,0A45.35,45.35,0,0,1,68.27,1.74l.56,9.76H67.28C66.47,8,64,2.42,56.27,2.42c-10,0-10.81,10.63-10.81,17,0,8,1.74,20.39,15.35,20.39a19.53,19.53,0,0,0,8-1.55ZM102.21,9.57c-.56-3.29-3.05-7.15-9.7-7.15-4.17,0-7.83,2.67-7.83,6.78,0,5.53,7.4,7.33,12.81,10.5,4.91,2.86,8.2,5.41,8.2,11.31,0,7.89-6.84,11.62-15.35,11.62a68.83,68.83,0,0,1-10.69-1.18l-.44-8.76h1.56c.49,3.29,3.42,7.15,10.07,7.15,5.47,0,9-3.54,9-7.83,0-6.71-10.32-8.76-16.1-13.17a9.33,9.33,0,0,1-4-8.33C79.71,3,85.87,0,93.69,0a44.29,44.29,0,0,1,9.64,1.05l.43,8.51Zm28.87,32.5a15.89,15.89,0,0,1-4,.5c-3.21,0-4.15-1.66-4.15-4h-.11a8.79,8.79,0,0,1-7.85,4c-3.81,0-6.63-2.65-6.63-6.25,0-8,10.4-8,14.59-8.41v-2.1c0-3.87-.06-8-4.7-8-3.43,0-3.87,1.44-3.87,3.21a2.61,2.61,0,0,1-2.6,2.87,2.48,2.48,0,0,1-2.65-2.49c0-3.59,5.36-5.42,9.18-5.42,7.57,0,9,3.65,9,8.79V38.53c0,1.94.66,2.6,2.38,2.6a7,7,0,0,0,1.49-.22ZM122.9,29.74c-2.6.06-9.68.56-9.68,5.7,0,2.87,1.89,4.81,3.77,4.81,3.59,0,5.91-3.48,5.91-7.24Zm9.4,11.33c2.32,0,4.2-.49,4.2-4.09V21.89c0-3.32-2.6-3.48-4.2-3.59v-.94L140.82,16v7.3h.11c.77-2,3.26-7.3,8.73-7.3,5.86,0,6.42,3.2,6.42,8.35V37c0,3.59,1.88,4.09,4.2,4.09V42H147.56v-.94c2.32,0,4.2-.49,4.2-4.09V25.59c0-4.76-.05-6.91-3.71-6.91-3.25,0-7.24,6.25-7.24,11.5V37c0,3.59,1.87,4.09,4.2,4.09V42H132.3Zm34.3-.3c3.36,0,5.41-.44,5.41-5.09V7c0-4.66-2.05-5.1-5.41-5.1V.62h14.55c10.31,0,21.25,2.24,21.25,20.76S190.9,42,181.15,42H166.6Zm10.94-6.4c0,4.54.5,5.22,3.61,5.22,10.69,0,15.1-5.72,15.1-18.21C196.25,9.94,193,3,181.15,3c-3.11,0-3.61.37-3.61,5.22Zm27.12,6.7c2.33,0,4.21-.49,4.21-4.09V21.89c0-3.32-2.54-3.48-4.21-3.59v-.94L213.18,16V37c0,3.59,1.88,4.09,4.2,4.09V42H204.66Zm3-33.28a3.15,3.15,0,1,1,3.15,3.15A3.11,3.11,0,0,1,207.71,7.79Zm29.69,33.78a17.74,17.74,0,0,1-6.58,1c-8.57,0-13.37-4.7-13.37-14,0-8.07,3.26-12.55,11.22-12.55,5,0,9.46,2.76,9.46,9.17v1.22H222c0,4.64,2.26,14.1,11.5,14.1a9.14,9.14,0,0,0,3.87-.72Zm-4.2-17c0-2.93-1-6.74-5.25-6.74S222,22.55,222,24.59Zm22.89,13c2.65,0,8.79.11,8.79,6.25,0,6.3-6.19,9.84-13.55,9.84-5.42,0-11.05-2-11.05-7,0-3.43,2.54-4.92,4.31-5.81a4.29,4.29,0,0,1-2.38-3.92c0-2,1.77-4.15,2.38-4.81-1.28-1-3.21-2.71-3.21-7.41,0-7.13,5.19-8.68,10.44-8.68a10.67,10.67,0,0,1,5.7,1.38c.88-2.1,2.2-5.91,5.58-5.91a2.49,2.49,0,0,1,2.66,2.65,2.36,2.36,0,0,1-2.6,2.49c-1.44,0-1.77-.78-2.49-.78-1.21,0-1.71,1.61-2,2.49A9.28,9.28,0,0,1,261.16,25c0,5.58-3.48,8.73-10.11,8.73a12.17,12.17,0,0,1-5-.83,4,4,0,0,0-1,2.49c0,2.21,2.76,2.21,4.53,2.21Zm-9.57,3.92c-1.11.83-2.65,1.77-2.65,4.26,0,3.26,2.92,6.08,7.73,6.08,5,0,9.68-2.6,9.68-6.58,0-2.82-2.32-3.76-5.09-3.76Zm4.81-9.62c4.65,0,5.25-3.65,5.25-6.58,0-4.14-1.44-7.46-5.42-7.46-4.37,0-5.19,3.21-5.19,6.41C246,28.47,247.34,31.89,251.32,31.89Zm13.6-2.6C264.92,21,269.4,16,276.47,16S288,21,288,29.3s-4.47,13.27-11.56,13.27S264.92,37.59,264.92,29.3Zm11.55,11.44c5.53,0,6.64-6.85,6.64-11.44S282,17.85,276.47,17.85s-6.63,6.85-6.63,11.45S270.95,40.74,276.47,40.74Z"></path>
</svg>
