<?xml version="1.0" encoding="utf-8"?>
<!-- Generator: Adobe Illustrator 21.1.0, SVG Export Plug-In . SVG Version: 6.00 Build 0)  -->
<svg version="1.1" id="Artwork" xmlns="http://www.w3.org/2000/svg" xmlns:xlink="http://www.w3.org/1999/xlink" x="0px" y="0px"
	 viewBox="0 0 775.7 224.4" style="enable-background:new 0 0 775.7 224.4;" xml:space="preserve">
<style type="text/css">
	.st0{fill:#0071CE;}
	.st1{fill:none;}
</style>
<g id="Logo__x26__Clearspace">
	<g id="Logo_2_">
		<path id="_xAE_" class="st0" d="M769.2,207.7c0-2.7-2.3-3.7-4.7-3.7H760v12.7h2.3v-5.3h1.6l3,5.3h2.8l-3.4-5.6
			C768,210.7,769.2,209.5,769.2,207.7z M762.3,209.5v-3.6h2.1c1.2,0,2.5,0.3,2.5,1.7c0,1.5-1.5,1.9-2.8,1.9H762.3z M764.4,199.1
			c-6.3,0-11.3,5-11.3,11.3s5.1,11.2,11.3,11.2c6.3,0,11.3-4.9,11.3-11.2C775.8,204.1,770.7,199.1,764.4,199.1z M764.4,219.9
			c-5.3,0-9.5-4.3-9.5-9.6c0-5.3,4.3-9.5,9.5-9.5c5.3,0,9.5,4.3,9.5,9.5C774,215.6,769.7,219.9,764.4,219.9z"/>
		<path id="Intuit" class="st0" d="M0,66.5h38.4V220H0V66.5z M162.4,62c-22.7,0-40.9,13.8-47.6,29.1h-0.6V66.5H77.7V220h38.4v-84.4
			c0-20.5,11.5-41.6,35.8-41.6c24.6,0,28.8,22.7,28.8,40.9V220h38.4v-95.9C219,92.7,202.4,62,162.4,62z M492.7,150.9
			c0,20.5-11.5,41.6-35.8,41.6c-24.6,0-28.8-22.7-28.8-40.9V66.5h-38.4v95.9c0,31.3,16.6,62,56.6,62c22.7,0,40.9-13.7,47.6-29.1h0.6
			v24.6H531V66.5h-38.4L492.7,150.9L492.7,150.9z M570.3,219.9h38.4V66.5h-38.4V219.9z M238.6,100.4h43V220H320V100.4h43v-34H238.6
			V100.4z M300.8,46.4c12.8,0,23.2-10.4,23.2-23.2S313.6,0,300.8,0c-12.8,0-23.2,10.4-23.2,23.2C277.6,36,288,46.4,300.8,46.4z
			 M635.6,66.4v34h43V220H717V100.4h43v-34H635.6z M697.8,46.4c12.8,0,23.2-10.4,23.2-23.2S710.6,0,697.8,0s-23.2,10.4-23.2,23.2
			S685,46.4,697.8,46.4z"/>
	</g>
	<rect id="Clearspace_3_" x="-153.4" y="-153.5" class="st1" width="1082.7" height="531.4"/>
</g>
</svg>
