<svg width="188" height="148" viewBox="0 0 188 148" fill="none" xmlns="http://www.w3.org/2000/svg">
<rect width="45.5097" height="36.4178" fill="black" fill-opacity="0" transform="translate(2.62305) scale(4)"/>
<path fill-rule="evenodd" clip-rule="evenodd" d="M50.3263 125.265C36.4048 125.265 27.916 114.134 27.916 100.306C27.916 86.9826 35.7257 80.4199 49.6472 80.4199C63.399 80.4199 73.075 85.6333 73.075 101.654C73.075 117.339 62.7187 125.265 50.3263 125.265ZM97.6947 55.4638V0H72.3983V55.4638H45.1425C44.9463 55.4604 44.7536 55.4444 44.5563 55.4444C44.3005 55.4444 44.0527 55.4592 43.7992 55.4638H43.3174L43.3105 55.474C16.9472 56.0939 2.62305 76.2285 2.62305 100.136C2.62305 125.433 18.5819 145.671 45.0656 145.671C57.7988 145.671 64.6414 145.164 72.3983 139.316V143.816H97.6947V80.5474H184.662V55.4638H97.6947Z" fill="#006595"/>
<path fill-rule="evenodd" clip-rule="evenodd" d="M106.244 142.869H131.45V86.8418H106.244V142.869Z" fill="#6CADD2"/>
<path fill-rule="evenodd" clip-rule="evenodd" d="M131.867 38.2361C131.867 34.6753 133.415 30.467 138.402 30.467C143.389 30.467 145.109 33.866 145.109 37.7506C145.109 38.3969 145.104 40.501 145.104 40.501H165.057V35.9712C165.057 23.6701 157.662 11.2061 136.854 11.2061C121.378 11.2061 106.244 18.0051 106.244 42.1207V47.6238H131.867V38.2361Z" fill="#6CADD2"/>
</svg>
