<svg width="50" height="40" viewBox="0 0 50 40" fill="none" xmlns="http://www.w3.org/2000/svg">
<path fill-rule="evenodd" clip-rule="evenodd" d="M13.103 34.3968C9.27927 34.3968 6.94769 31.3403 6.94769 27.5431C6.94769 23.8846 9.09274 22.0826 12.9165 22.0826C16.6937 22.0826 19.3514 23.5141 19.3514 27.9133C19.3514 32.2202 16.5068 34.3968 13.103 34.3968ZM26.113 15.2299V0H19.1649V15.2299H11.6787C11.6248 15.2289 11.5719 15.2246 11.5177 15.2246C11.4474 15.2246 11.3793 15.2286 11.3097 15.2299H11.1774L11.1755 15.2327C3.93438 15.4029 0 20.9317 0 27.4965C0 34.4428 4.38336 40 11.6576 40C15.1549 40 17.0344 39.8608 19.1649 38.2549V39.4906H26.113V22.1176H50V15.2299H26.113Z" fill="#1E1F23"/>
<path fill-rule="evenodd" clip-rule="evenodd" d="M28.4614 39.2307H35.3845V23.8461H28.4614V39.2307Z" fill="#5769EC"/>
<path fill-rule="evenodd" clip-rule="evenodd" d="M35.4992 10.4994C35.4992 9.5216 35.9243 8.36604 37.2941 8.36604C38.6639 8.36604 39.1363 9.29937 39.1363 10.366C39.1363 10.5435 39.135 11.1213 39.135 11.1213H44.6153V9.87745C44.6153 6.49967 42.5842 3.07715 36.869 3.07715C32.6181 3.07715 28.4614 4.94412 28.4614 11.566V13.0772H35.4992V10.4994Z" fill="#5769EC"/>
</svg>
