<svg id="Layer_1" data-name="Layer 1" xmlns="http://www.w3.org/2000/svg" viewBox="0 0 327.13 95.72"><defs><style>.cls-1{opacity:0.5;}.cls-2,.cls-7{fill:none;stroke-miterlimit:10;}.cls-2{stroke:#27aae1;}.cls-3{fill:#ffd058;}.cls-4{fill:#fbb040;}.cls-5{fill:#df3341;}.cls-6{fill:#be1e2d;}.cls-7{stroke:#be1e2d;stroke-width:7px;}.cls-8{fill:#80b058;}.cls-9{fill:#98bc77;}.cls-10{fill:#177ca3;}.cls-11{fill:#65a2ba;}.cls-12{fill:#808285;}.cls-13{fill:#939598;}</style></defs><title>logo-color</title><g class="cls-1"><path class="cls-2" d="M378.78,143" transform="translate(-271.02 -101.48)"/></g><rect class="cls-3" x="0.04" y="6.59" width="40.72" height="40.9" rx="7.13" ry="7.13"/><path class="cls-4" d="M292.42,134.35,271.14,115a6.86,6.86,0,0,1,6.86-6.86H304.9a6.86,6.86,0,0,1,6.86,6.86Z" transform="translate(-271.02 -101.48)"/><path class="cls-5" d="M339.61,149.09a20.93,20.93,0,1,1,20.93-20.93A21,21,0,0,1,339.61,149.09Zm0-34.92a14,14,0,1,0,14,14A14,14,0,0,0,339.61,114.17Z" transform="translate(-271.02 -101.48)"/><path class="cls-6" d="M328.44,145.82a20.38,20.38,0,0,1-9.8-17.24,20.7,20.7,0,0,1,2.78-10.68l6,3.45a14.09,14.09,0,0,0-1.77,7.12,13.82,13.82,0,0,0,2.23,7.27,13,13,0,0,0,4.18,4.18Z" transform="translate(-271.02 -101.48)"/><path class="cls-7" d="M334.38,137.54" transform="translate(-271.02 -101.48)"/><path class="cls-4" d="M295.13,119.9H288a7.23,7.23,0,0,1-7.22-7.22v-4a7.23,7.23,0,0,1,7.22-7.22h7.12a7.23,7.23,0,0,1,7.22,7.22v4A7.23,7.23,0,0,1,295.13,119.9ZM288,104.48a4.22,4.22,0,0,0-4.22,4.22v4A4.22,4.22,0,0,0,288,116.9h7.12a4.22,4.22,0,0,0,4.22-4.22v-4a4.22,4.22,0,0,0-4.22-4.22Z" transform="translate(-271.02 -101.48)"/><g class="cls-1"><path class="cls-2" d="M321.58,162.84" transform="translate(-271.02 -101.48)"/></g><rect class="cls-8" y="56.29" width="40.76" height="7.28" rx="1.46" ry="1.46"/><path class="cls-9" d="M0,61.41H40.76a0,0,0,0,1,0,0v.75a1.42,1.42,0,0,1-1.42,1.42H1.42A1.42,1.42,0,0,1,0,62.16v-.75a0,0,0,0,1,0,0Z"/><rect class="cls-8" y="71.86" width="40.76" height="7.28" rx="1.46" ry="1.46"/><path class="cls-9" d="M0,77H40.76a0,0,0,0,1,0,0v.75a1.42,1.42,0,0,1-1.42,1.42H1.42A1.42,1.42,0,0,1,0,77.72V77a0,0,0,0,1,0,0Z"/><rect class="cls-8" y="87.34" width="40.76" height="7.28" rx="1.46" ry="1.46"/><path class="cls-9" d="M0,92.45H40.76a0,0,0,0,1,0,0v.75a1.42,1.42,0,0,1-1.42,1.42H1.42A1.42,1.42,0,0,1,0,93.2v-.75a0,0,0,0,1,0,0Z"/><rect class="cls-10" x="48.21" y="55.19" width="40.71" height="40.53" rx="2.99" ry="2.99"/><polygon class="cls-11" points="83.12 95.72 79.65 95.72 76.17 95.72 76.17 66.77 83.12 66.77 83.12 95.72"/><polygon class="cls-11" points="72.04 95.72 68.57 95.72 65.1 95.72 65.1 72.76 72.04 72.76 72.04 95.72"/><polygon class="cls-11" points="60.96 95.72 57.49 95.72 54.02 95.72 54.02 78.93 60.96 78.93 60.96 95.72"/><path class="cls-12" d="M395.23,154.14a19,19,0,0,1,1.34-7.24,16.83,16.83,0,0,1,3.68-5.63,16.51,16.51,0,0,1,5.54-3.64,18.27,18.27,0,0,1,6.92-1.29,15.25,15.25,0,0,1,7.89,2.06,10.78,10.78,0,0,1,2.39,1.9,11.92,11.92,0,0,1,1.46,1.86v-34h7v62.89h-7v-2.51a8.35,8.35,0,0,1,.08-1.09,8,8,0,0,0,.08-1,15.74,15.74,0,0,1-1.9,1.9,15.54,15.54,0,0,1-2.55,1.74,14,14,0,0,1-3.36,1.3,19.34,19.34,0,0,1-11.57-.93,16,16,0,0,1-8.82-9.43A20,20,0,0,1,395.23,154.14Zm7-.08a11.16,11.16,0,0,0,.85,4.37,10.5,10.5,0,0,0,5.79,5.79,11.39,11.39,0,0,0,4.45.85,11.7,11.7,0,0,0,4.49-.85,10.78,10.78,0,0,0,3.56-2.35,10.47,10.47,0,0,0,2.31-3.48,12,12,0,0,0,0-8.66,10,10,0,0,0-2.31-3.44,11.1,11.1,0,0,0-3.56-2.31,11.68,11.68,0,0,0-4.49-.85,11.37,11.37,0,0,0-4.45.85,10.73,10.73,0,0,0-3.48,2.31,10.85,10.85,0,0,0-3.16,7.77Z" transform="translate(-271.02 -101.48)"/><path class="cls-12" d="M469.78,167.09a18.23,18.23,0,0,1-5.91,3.48,20.29,20.29,0,0,1-7.12,1.3,17.47,17.47,0,0,1-7-1.42,18.51,18.51,0,0,1-5.71-3.8A17.8,17.8,0,0,1,440.2,161a17.42,17.42,0,0,1,0-13.76,18.33,18.33,0,0,1,9.47-9.51,16.7,16.7,0,0,1,6.84-1.42,15.41,15.41,0,0,1,10,3.44,19.08,19.08,0,0,1,6.11,9q-2.51.89-5.75,2.19l-6.72,2.71q-3.48,1.42-7,2.79T446.71,159a10.88,10.88,0,0,0,4,4.41,10.77,10.77,0,0,0,5.87,1.66,12.84,12.84,0,0,0,4.41-.81,9.68,9.68,0,0,0,3.6-2.19ZM464,147.18a6.36,6.36,0,0,0-3.08-3,9.8,9.8,0,0,0-4.29-1,10.44,10.44,0,0,0-4.33.89,11.08,11.08,0,0,0-3.44,2.39,11.5,11.5,0,0,0-2.31,3.44,9.81,9.81,0,0,0-.85,4,2.61,2.61,0,0,0,0,.57,1.11,1.11,0,0,1,0,.24q2.1-.81,4.57-1.82l4.9-2,4.69-1.94Z" transform="translate(-271.02 -101.48)"/><path class="cls-12" d="M497.46,140.22l-3.64,4.86a6.09,6.09,0,0,0-.57-.4A7.74,7.74,0,0,0,492,144a15.57,15.57,0,0,0-1.78-.61,7.62,7.62,0,0,0-2.06-.28,6.16,6.16,0,0,0-2.71.65,2.45,2.45,0,0,0-1.34,2.43,3.2,3.2,0,0,0,1.09,2.51,11.41,11.41,0,0,0,2.71,1.74q1.62.77,3.52,1.58a18,18,0,0,1,3.52,2,10.38,10.38,0,0,1,2.71,2.91,8.17,8.17,0,0,1,1.09,4.41,9.87,9.87,0,0,1-3.12,7.49q-3.12,3-8.54,3a18.15,18.15,0,0,1-6.19-1.09,11.64,11.64,0,0,1-4.9-3.2,15.42,15.42,0,0,0,1.26-1.46q.69-.89,1.38-1.7l1.13-1.34c.3-.35.47-.53.53-.53s.2.22.61.49a11.43,11.43,0,0,0,1.58.85,16.87,16.87,0,0,0,2.19.81,8.44,8.44,0,0,0,2.43.36,5.6,5.6,0,0,0,3.32-1,3,3,0,0,0,1.38-2.59,2.77,2.77,0,0,0-1.09-2.31,13.28,13.28,0,0,0-2.71-1.58q-1.62-.73-3.56-1.5a15.25,15.25,0,0,1-3.56-2,10.5,10.5,0,0,1-2.71-3,9.12,9.12,0,0,1-1.09-4.74,9.56,9.56,0,0,1,1-4.61,9.2,9.2,0,0,1,2.59-3,10.44,10.44,0,0,1,3.52-1.7,14.26,14.26,0,0,1,3.72-.53,14.74,14.74,0,0,1,5,1A12.23,12.23,0,0,1,497.46,140.22Z" transform="translate(-271.02 -101.48)"/><path class="cls-12" d="M505.23,124.27a4.2,4.2,0,0,1,1.42-3.24,4.44,4.44,0,0,1,3-1.3,4.57,4.57,0,0,1,4.37,4.53,4.13,4.13,0,0,1-1.38,3.2,4.36,4.36,0,0,1-3,1.26,4.5,4.5,0,0,1-3-1.26A4.08,4.08,0,0,1,505.23,124.27ZM513,171.06h-6.88V137.22H513Z" transform="translate(-271.02 -101.48)"/><path class="cls-12" d="M520.45,154.22a18.11,18.11,0,0,1,1.38-7.08,17.83,17.83,0,0,1,3.72-5.67,17.39,17.39,0,0,1,5.5-3.76,16.63,16.63,0,0,1,6.72-1.38,15.22,15.22,0,0,1,4.9.73,15.47,15.47,0,0,1,3.6,1.7,12.62,12.62,0,0,1,2.31,1.9,10.39,10.39,0,0,1,1.09,1.34,18.7,18.7,0,0,1,.16-2.39,18.66,18.66,0,0,0,.16-2.39h6.64v32.3q0,8.42-4.94,13.11t-13.36,4.7a20.54,20.54,0,0,1-5.22-.61,20.92,20.92,0,0,1-4.21-1.58,19.3,19.3,0,0,1-3.48-2.27q-1.58-1.3-3.12-2.67l4.45-4.69a23.61,23.61,0,0,0,5.14,3.72,13.38,13.38,0,0,0,6.27,1.38q5.42,0,8.42-2.59a9.25,9.25,0,0,0,3.08-7.2v-2.35a6.91,6.91,0,0,1,.16-1.42,6.19,6.19,0,0,0,.16-1.17,19.49,19.49,0,0,1-1.82,2.06,12.42,12.42,0,0,1-2.55,1.94,15.1,15.1,0,0,1-3.4,1.42,15.63,15.63,0,0,1-4.37.57,17.13,17.13,0,0,1-12.47-5.14,16.93,16.93,0,0,1-3.64-5.59A18.25,18.25,0,0,1,520.45,154.22Zm7-.16a11.16,11.16,0,0,0,.85,4.37,10.5,10.5,0,0,0,5.79,5.79,11.39,11.39,0,0,0,4.45.85,11.7,11.7,0,0,0,4.49-.85,10.78,10.78,0,0,0,3.56-2.35,10.47,10.47,0,0,0,2.31-3.48,12,12,0,0,0,0-8.66,10,10,0,0,0-2.31-3.44A11.1,11.1,0,0,0,543,144a11.68,11.68,0,0,0-4.49-.85A11.37,11.37,0,0,0,534,144a10.73,10.73,0,0,0-3.48,2.31,10.85,10.85,0,0,0-3.16,7.77Z" transform="translate(-271.02 -101.48)"/><path class="cls-12" d="M566.34,137.22h6.07q.16,2.51.28,4.57t.28,4.09a16.68,16.68,0,0,1,5.3-7,13.66,13.66,0,0,1,8.46-2.59,11.59,11.59,0,0,1,8.18,2.83,10,10,0,0,1,3.24,7.28v24.61h-7V149.6a7.12,7.12,0,0,0-1.78-4.41,7,7,0,0,0-5.1-2,11.38,11.38,0,0,0-4.45.85,10.5,10.5,0,0,0-5.79,5.79,11.38,11.38,0,0,0-.85,4.45v16.75h-6.88Z" transform="translate(-271.02 -101.48)"/><path class="cls-13" d="M411.21,196.88l-.74-2.17h-4.26l-.74,2.17h-1.74l4-10.79H409l4,10.79Zm-2.83-8.35-1.68,4.79H410Z" transform="translate(-271.02 -101.48)"/><path class="cls-13" d="M419.55,187.56v9.32h-1.64v-9.32h-3v-1.47h7.58v1.47Z" transform="translate(-271.02 -101.48)"/><path class="cls-13" d="M442.31,197a3.66,3.66,0,0,1-3.87-3.73v-7.15h1.64v7.08a2.24,2.24,0,1,0,4.47,0v-7.08h1.64v7.15A3.67,3.67,0,0,1,442.31,197Z" transform="translate(-271.02 -101.48)"/><path class="cls-13" d="M454.65,197a3.91,3.91,0,0,1-2.83-1.15c-1.06-1.06-1-2.26-1-4.33s0-3.27,1-4.34a3.91,3.91,0,0,1,2.83-1.15,3.72,3.72,0,0,1,3.85,3.32h-1.67a2.23,2.23,0,0,0-3.77-1.2c-.53.58-.65,1.2-.65,3.37s.12,2.79.65,3.36a2.16,2.16,0,0,0,1.59.65,2.18,2.18,0,0,0,2.2-1.85h1.65A3.73,3.73,0,0,1,454.65,197Z" transform="translate(-271.02 -101.48)"/><path class="cls-13" d="M465.87,197a4.88,4.88,0,0,1-3.82-1.43l1.09-1.08a3.56,3.56,0,0,0,2.76,1c1.41,0,2.23-.61,2.23-1.65a1.45,1.45,0,0,0-.42-1.12,1.88,1.88,0,0,0-1.18-.45l-1.27-.18a3.69,3.69,0,0,1-2-.86,2.68,2.68,0,0,1-.79-2.06c0-1.88,1.36-3.17,3.61-3.17a4.49,4.49,0,0,1,3.35,1.23l-1,1a3.17,3.17,0,0,0-2.35-.83c-1.27,0-2,.73-2,1.68a1.28,1.28,0,0,0,.41,1,2.42,2.42,0,0,0,1.21.5l1.23.18a3.57,3.57,0,0,1,2,.8,2.83,2.83,0,0,1,.88,2.21C469.75,195.79,468.13,197,465.87,197Z" transform="translate(-271.02 -101.48)"/><path class="cls-13" d="M480.84,195.86a3.85,3.85,0,0,1-2.79,1h-3.79V186.09h3.79a3.85,3.85,0,0,1,2.79,1c1.17,1.17,1.09,2.74,1.09,4.31S482,194.7,480.84,195.86Zm-1.12-7.58a2.33,2.33,0,0,0-1.83-.73h-2v7.85h2a2.34,2.34,0,0,0,1.83-.73c.56-.62.58-1.79.58-3.27S480.28,188.91,479.72,188.28Z" transform="translate(-271.02 -101.48)"/></svg>